<svg version="1.1" xmlns="http://www.w3.org/2000/svg" xmlns:xlink="http://www.w3.org/1999/xlink" width="35.8" height="42.59432" viewBox="0,0,35.8,42.59432"><g transform="translate(-222,-157.99498)"><g data-paper-data="{&quot;isPaintingLayer&quot;:true}" fill-rule="nonzero" stroke="none" stroke-width="1" stroke-linecap="butt" stroke-linejoin="miter" stroke-miterlimit="10" stroke-dasharray="" stroke-dashoffset="0" style="mix-blend-mode: normal"><g><path d="M253.57071,163.0393c3.8,3.8 4,28.3 -0.2,33.8c-4.2,5.5 -18.8,4 -25.1,1.5c-6.3,-2.5 -4.4,-20 -4.4,-27.5c0,-7.5 4.7,-10.2 10.2,-11c9,-1.2 16.4,0.2 19.5,3.2z" fill="#cfebe2"/><g><path d="M252.27071,166.93929c2.1,2.9 3.1,23.3 0.4,27.8c-2.7,4.5 -17.3,4.9 -22.6,1.9c-4.1,-2.3 -4.8,-9.2 -4.9,-19.7c-0.1,-10.7 3.6,-13.2 7.4,-13.9c14.8,-3 17.7,0.9 19.7,3.9z" fill="#ad2744"/><path d="M230.17071,196.6393c-0.6,-0.3 -1.1,-0.8 -1.6,-1.3c4.2,-2.1 15.1,-4.5 23.8,-0.1c-3.4,4.1 -17.2,4.3 -22.2,1.4z" fill="#991f3f"/><path d="M228.77071,192.3393c0,-0.55228 0.44772,-1 1,-1c0.55228,0 1,0.44772 1,1c0,0.55228 -0.44772,1 -1,1c-0.55228,0 -1,-0.44772 -1,-1z" fill="#cf2f51"/><path d="M249.60045,190.59357c0,-0.55228 0.44772,-1 1,-1c0.55228,0 1,0.44772 1,1c0,0.55228 -0.44772,1 -1,1c-0.55228,0 -1,-0.44772 -1,-1z" fill="#cf2f51"/><path d="M237.55163,192.34474c0,-0.55228 0.44772,-1 1,-1c0.55228,0 1,0.44772 1,1c0,0.55228 -0.44772,1 -1,1c-0.55228,0 -1,-0.44772 -1,-1z" fill="#cf2f51"/><path d="M243.69776,189.62033c0,-0.55228 0.44772,-1 1,-1c0.55228,0 1,0.44772 1,1c0,0.55228 -0.44772,1 -1,1c-0.55228,0 -1,-0.44772 -1,-1z" fill="#cf2f51"/><path d="M228.14366,188.22572c0,-0.55228 0.44772,-1 1,-1c0.55228,0 1,0.44772 1,1c0,0.55228 -0.44772,1 -1,1c-0.55228,0 -1,-0.44772 -1,-1z" fill="#cf2f51"/><path d="M226.21638,174.7499c0,-0.55228 0.44772,-1 1,-1c0.55228,0 1,0.44772 1,1c0,0.55228 -0.44772,1 -1,1c-0.55228,0 -1,-0.44772 -1,-1z" fill="#cf2f51"/><path d="M249.47369,174.89878c0,-0.55228 0.44772,-1 1,-1c0.55228,0 1,0.44772 1,1c0,0.55228 -0.44772,1 -1,1c-0.55228,0 -1,-0.44772 -1,-1z" fill="#cf2f51"/><path d="M241.17071,171.3393c0,-0.55228 0.44772,-1 1,-1c0.55228,0 1,0.44772 1,1c0,0.55228 -0.44772,1 -1,1c-0.55228,0 -1,-0.44772 -1,-1z" fill="#cf2f51"/><path d="M234.27885,194.3475c0,-0.55228 0.44772,-1 1,-1c0.55228,0 1,0.44772 1,1c0,0.55228 -0.44772,1 -1,1c-0.55228,0 -1,-0.44772 -1,-1z" fill="#cf2f51"/><path d="M231.89764,188.63379c0,-0.55228 0.44772,-1 1,-1c0.55228,0 1,0.44772 1,1c0,0.55228 -0.44772,1 -1,1c-0.55228,0 -1,-0.44772 -1,-1z" fill="#cf2f51"/><path d="M246.97071,172.1393c0,-0.55228 0.44772,-1 1,-1c0.55228,0 1,0.44772 1,1c0,0.28888 -0.12249,0.54916 -0.31838,0.73171c-0.17861,0.16645 -0.41822,0.26829 -0.68162,0.26829c-0.55228,0 -1,-0.44772 -1,-1z" fill="#cf2f51"/><path d="M245.7655,195.04767c0,-0.55228 0.44772,-1 1,-1c0.55228,0 1,0.44772 1,1c0,0.55228 -0.44772,1 -1,1c-0.55228,0 -1,-0.44772 -1,-1z" fill="#cf2f51"/><path d="M235.97071,171.4393c0,-0.55228 0.44772,-1 1,-1c0.55228,0 1,0.44772 1,1c0,0.55228 -0.44772,1 -1,1c-0.55228,0 -1,-0.44772 -1,-1z" fill="#cf2f51"/></g><path d="M239.67071,187.0393c-7.2,0.1 -12.9,-1.5 -16.1,-2.7c-0.1,-3.2 0,-6.3 0.1,-9.1c2.5,1.5 8.7,3.5 18.7,2.7c7.5,-0.6 11.5,-1.3 14,-2.3c0.1,3.2 0.1,6.7 -0.2,9.9c-2.9,0.6 -8.1,1.4 -16.5,1.5z" fill="#f0e0da"/><g><g><path d="M240.77071,188.5393l-0.1,0.1c-0.9,0.5 -1.8,0.8 -2.7,0.6c-2.5,-0.5 -5.5,-9.5 -2,-11.1c1,-0.4 2.2,-0.5 3.3,-0.4c-1,-1.4 -1.4,-2.7 -0.5,-2.7c1.2,0 1.9,2.7 1.9,2.7c0,0 -0.1,-2.8 1.6,-2.8c1.5,0 0.1,2.1 -0.4,2.7c0.5,-0.5 2,-2.4 3.1,-1.6c0.9,0.5 -1.2,1.7 -2.8,2.4c1.9,0.9 3.3,2.1 3.3,3.4c0,1.8 -2.1,5.2 -4.7,6.7z" fill="#e5e4e1"/><path d="M238.77071,190.3393c-0.3,0 -0.6,0 -0.9,-0.1c-2.2,-0.5 -4,-4.9 -4.3,-7.8c-0.2,-2.6 0.5,-4.5 2.1,-5.2c0.6,-0.3 1.2,-0.4 1.9,-0.5c-0.3,-0.7 -0.4,-1.4 -0.1,-1.9c0.2,-0.5 0.7,-0.8 1.3,-0.8c0.7,0 1.2,0.4 1.7,0.9c0.1,-0.1 0.2,-0.2 0.2,-0.3c0.4,-0.5 1,-0.7 1.7,-0.7c0.9,0 1.3,0.5 1.5,0.8c0,0 0,0.1 0.1,0.1c0.6,-0.1 1.2,0 1.7,0.3c0.4,0.3 0.6,0.8 0.6,1.3c-0.1,0.6 -0.4,1.2 -1.9,2c1.4,1 2.2,2.1 2.2,3.3c0,2.3 -2.4,6 -5,7.6l-0.2,0.1c-0.9,0.6 -1.8,0.9 -2.6,0.9zM238.47071,178.6393c-0.7,0 -1.4,0.1 -1.9,0.4c-1.1,0.5 -1,2.4 -1,3.2c0.3,3 2,5.9 2.7,6.1c0.6,0.1 1.2,0 2,-0.5l0.1,-0.1c2.2,-1.4 4,-4.6 4,-5.9c0,-0.6 -0.9,-1.7 -2.7,-2.4c-0.3,-0.1 -0.5,-0.4 -0.6,-0.7c-0.1,0.1 -0.2,0.1 -0.3,0.1c-0.3,0 -0.6,-0.1 -0.9,-0.3c-0.2,0.2 -0.5,0.3 -0.8,0.2c-0.1,-0.1 -0.3,-0.1 -0.6,-0.1z" fill="#f0e0da"/></g><g><path d="M240.67071,179.1393c-1.8,-1.6 -3,-4.1 -1.8,-4.1c1.2,0 1.9,2.7 1.9,2.7c0,0 -0.1,-2.8 1.6,-2.8c1.7,0 -0.5,2.9 -0.5,2.9c0,0 1.9,-2.7 3.2,-1.8c1.3,0.9 -4.4,3.1 -4.4,3.1z" fill="#88b540"/><path d="M238.07071,189.2393c-2.4,-0.6 -5.5,-9.6 -2,-11.1c3.5,-1.5 9.4,1.2 9.4,3.7c0,2.5 -4.1,8.2 -7.4,7.4z" fill="#dd223d"/><path d="M239.47071,182.7393c-0.7,-0.3 -0.1,-1.5 0.6,-1.4c0.6,0.2 -0.2,1.6 -0.6,1.4z" fill="#ddbf6b"/><path d="M241.37071,185.2393c-0.7,-0.3 -0.1,-1.5 0.6,-1.4c0.6,0.2 -0.2,1.6 -0.6,1.4z" fill="#ddbf6b"/><path d="M241.97071,181.1393c-0.7,-0.3 -0.1,-1.5 0.6,-1.4c0.6,0.2 -0.3,1.6 -0.6,1.4z" fill="#ddbf6b"/><path d="M238.67071,187.0393c-0.7,-0.3 -0.1,-1.5 0.6,-1.4c0.6,0.2 -0.2,1.6 -0.6,1.4z" fill="#ddbf6b"/><path d="M241.37071,188.3393c-0.4,0.3 -0.7,0.4 -1,0.6c-0.2,-0.5 0.3,-1.3 0.8,-1.2c0.2,0 0.3,0.3 0.2,0.6z" fill="#ddbf6b"/><path d="M243.47071,183.3393c-0.7,-0.3 -0.1,-1.5 0.6,-1.4c0.5,0.2 -0.3,1.6 -0.6,1.4z" fill="#ddbf6b"/><path d="M236.97071,184.4393c-0.7,-0.3 -0.1,-1.5 0.6,-1.4c0.7,0.1 -0.3,1.6 -0.6,1.4z" fill="#ddbf6b"/><path d="M237.57071,180.4393c-0.7,-0.3 -0.1,-1.5 0.6,-1.4c0.6,0.2 -0.3,1.6 -0.6,1.4z" fill="#ddbf6b"/><path d="M236.57071,187.9393c-0.2,-0.2 -0.3,-0.5 -0.5,-0.8c0.2,-0.2 0.4,-0.2 0.6,-0.2c0.4,0.1 0.2,0.6 -0.1,1z" fill="#ddbf6b"/><path d="M235.37071,182.5393c-0.7,-0.3 -0.1,-1.5 0.6,-1.4c0.6,0.1 -0.2,1.5 -0.6,1.4z" fill="#ddbf6b"/></g></g></g><g><path d="M253,166.30001c1.1,-0.3 4.8,2.3 4.8,2.3c0,0 -2.4,1.9 -4.6,2.9c-2.1,1 -4.3,0.4 -5.9,0.1c-1.7,-0.3 -3.8,0.2 -5.1,0.7c-1.3,0.6 -1.8,-0.1 -4.1,-0.6c-2.3,-0.5 -6.5,2.7 -8,0.8c-1.5,-1.9 -2.5,-2.1 -4.9,-1.6c-2.4,0.6 -3.2,-3 -3.2,-3c0.8,-0.5 4.1,-2.2 4.1,-2.2c17.1,2.4 26.9,0.6 26.9,0.6z" fill="#e5e4e1"/><path d="M226.7,166.10001l-4.1,3.4c-0.4,-0.8 -0.6,-1.6 -0.6,-1.6c0.7,-0.4 3.1,-1.7 3.8,-2.1z" fill="#e6818b"/><path d="M229.7,167.20001l-3.8,3.7c-0.2,0 -0.5,0 -0.7,0.1c-0.5,0.1 -0.9,0.1 -1.3,-0.1l4.7,-4z" fill="#e6818b"/><path d="M232.9,167.40001l-2.9,5c-0.4,-0.6 -0.8,-0.9 -1.2,-1.2l2.6,-3.9z" fill="#e6818b"/><path d="M234.4,168.30001l1.5,0.4l-1.2,3.7c-0.6,0.2 -1.1,0.4 -1.7,0.5z" fill="#e6818b"/><path d="M238.1,168.50001l1.5,0.3l-0.8,3.2c-0.2,-0.1 -0.4,-0.1 -0.7,-0.2c-0.3,-0.1 -0.5,-0.1 -0.8,-0.1z" fill="#e6818b"/><path d="M242,168.40001h1.3l0.2,3.5c-0.5,0.1 -0.9,0.2 -1.3,0.4c-0.1,0 -0.2,0.1 -0.3,0.1z" fill="#e6818b"/><path d="M247.31622,171.70001c-0.2,-0.1 -0.3,-0.1 -0.5,-0.1l-0.2,-3.7l0.9,-0.3l0.7,4.2c-0.3,0 -0.5,-0.1 -0.9,-0.1z" fill="#e6818b"/><path d="M250.9,172.10001l-1.9,-4.7l1,-0.3l2.4,4.8c-0.6,0.1 -1.1,0.2 -1.5,0.2z" fill="#e6818b"/><path d="M255.7,170.10001l-4.4,-3.4h1.1l4.5,2.6c-0.3,0.3 -0.7,0.5 -1.2,0.8z" fill="#e6818b"/><path d="M225.9,166.60001c0,0 -1.9,-2.9 -0.4,-5.1c1.5,-2.2 8.1,-3.6 16.3,-3.5c8.2,0.1 14.5,1.9 12.2,8.7c0,0 -13.9,5.9 -28.1,-0.1z" fill="#d3d2cf"/><path d="M225.4,161.70001c0,-0.1 0.1,-0.1 0.1,-0.2c1.6,-2.2 8.1,-3.6 16.3,-3.5c5.5,0.1 10.1,0.9 11.8,3.5c-2,0.8 -5.6,1.6 -12.2,2.1c-9.8,0.8 -14.1,-0.8 -16,-1.9z" fill="#e5e4e1"/><path d="M236.4,158.10001c-2.8,1.2 -8.4,3.7 -8.6,4.4c-0.4,1.2 -0.3,3.5 -0.2,4.7c-0.5,-0.2 -1.1,-0.4 -1.6,-0.6c-0.1,-1.5 -0.2,-4.1 0.7,-4.9c0.8,-0.8 3.8,-2.2 6,-3.1c1.1,-0.2 2.4,-0.3 3.7,-0.5z" fill="#e6818b"/><path d="M232.3,162.90001c-0.3,1.1 0,4.2 0.2,5.7c-0.5,-0.1 -1.1,-0.3 -1.6,-0.4c-0.3,-1.8 -0.7,-5.2 0.3,-6.2c1,-1 6.1,-3.1 8.5,-4c0.7,0 1.4,0 2.1,0c0.2,0 0.3,0 0.5,0c-2.8,1.2 -9.8,4.1 -10,4.9z" fill="#e6818b"/><path d="M247.8,158.5c-3.2,1.4 -10.8,4.6 -11,5.4c-0.4,1.3 -0.2,4.3 -0.1,5.2c-0.5,0 -1,0 -1.5,-0.1c-0.2,-1.2 -0.6,-4.9 0.5,-6c1.1,-1.1 7.8,-3.9 10.1,-4.8c0.7,0.1 1.3,0.2 2,0.3z" fill="#e6818b"/><path d="M241.7,164.40001c-0.2,0.9 -0.1,3.3 0.1,4.9c-0.6,0 -1.1,0 -1.6,0c-0.2,-1.8 -0.5,-4.9 0.4,-5.8c1.2,-1.2 7.9,-3.8 9.4,-4.4c0.5,0.1 0.9,0.3 1.3,0.5c-3.1,1.2 -9.5,4 -9.6,4.8z" fill="#e6818b"/><path d="M246.1,168.70001c-0.5,0.1 -1,0.2 -1.5,0.3c-0.1,-1.4 0.1,-4.5 1.1,-5.5c0.6,-0.6 4.1,-2.3 6.6,-3.4c0.3,0.3 0.6,0.5 0.9,0.8c-2.8,1.3 -6.6,2.8 -6.7,3.3c-0.3,1.1 -0.5,3.3 -0.4,4.5z" fill="#e6818b"/><path d="M241.7,158c3.2,0.1 6.1,0.4 8.3,1.1l-8.3,-1.1c0,0 0.1,0 0,0z" fill="#e6818b"/><path d="M245.7,158.30001c0.7,0.1 1.3,0.2 1.9,0.3c0.1,0 0.1,0 0.1,0c-0.2,0.1 -0.3,0.1 -0.5,0.2l-2,-0.3c0.2,-0.1 0.4,-0.2 0.5,-0.2z" fill="#d1303e"/><path d="M238.1,166c7.9,0 14.1,-2.2 16.2,-3c0.1,0.4 0.1,0.8 0.1,1.2c-2.8,1.3 -13.9,5.7 -29.2,0.8c-0.1,-0.4 -0.2,-0.7 -0.2,-1.1c1.8,0.8 6,2.2 13.1,2.1z" fill="#e6818b"/><path d="M246.4,165.30001c-0.1,0.4 -0.2,0.9 -0.2,1.4c-0.5,0 -1.1,0.1 -1.6,0.2c0,-0.5 0.1,-0.9 0.2,-1.4c0.5,-0.1 1,-0.2 1.6,-0.2z" fill="#d1303e"/><path d="M241.5,167.20001c-0.5,0.1 -1.1,0.1 -1.6,0.1c0,-0.5 0,-0.9 0,-1.3c0.5,0 1.1,-0.1 1.6,-0.1c0,0.4 0,0.8 0,1.3z" fill="#d1303e"/><path d="M236.5,167.20001c-0.5,0 -1.1,0 -1.6,-0.1c0,-0.4 0,-0.7 0,-1.1c0.5,0 1.1,0 1.6,0c0,0.4 0,0.8 0,1.2z" fill="#d1303e"/><path d="M230.6,165.5c0.5,0.1 1,0.1 1.5,0.2c0.1,0.4 0.1,0.7 0.1,1c-0.5,-0.1 -1,-0.2 -1.6,-0.3c0,-0.3 0,-0.6 0,-0.9z" fill="#d1303e"/><path d="M227.6,165.70001c-0.6,-0.2 -1.1,-0.3 -1.6,-0.5c0,-0.3 0,-0.6 0,-0.9c0.4,0.1 0.9,0.3 1.5,0.5c0,0.3 0,0.6 0.1,0.9z" fill="#d1303e"/><path d="M248.5,168.40001c0,-1.3 -0.1,-4.5 -1.2,-4.5c-1.3,0 -18.4,-1 -22.3,-1.2c0.1,-0.3 0.1,-0.5 0.2,-0.8c4.4,0.2 22.2,1.2 23,1.2c1.4,0 1.4,3.8 1.3,5c-0.3,0.1 -0.6,0.2 -1,0.3z" fill="#e6818b"/><path d="M248.1,164.80001c0.4,-0.1 0.8,-0.2 1.2,-0.3c0.1,0.5 0.2,0.9 0.2,1.4c-0.3,0.1 -0.7,0.2 -1.1,0.3c-0.1,-0.5 -0.1,-1 -0.3,-1.4z" fill="#d1303e"/><path d="M245.5,163.80001c0.1,0 0.1,-0.1 0.2,-0.2c0.1,-0.1 0.4,-0.3 0.7,-0.5c1.1,0.1 1.8,0.1 1.9,0.1h0.1c-0.6,0.3 -1.1,0.5 -1.4,0.7c-0.4,-0.1 -0.9,-0.1 -1.5,-0.1z" fill="#d1303e"/><path d="M242.4,163.70001c-0.7,0 -1.3,-0.1 -2,-0.1c0.1,0 0.1,-0.1 0.1,-0.1c0.2,-0.2 0.6,-0.5 1,-0.7c0.8,0 1.6,0.1 2.3,0.1c-0.6,0.3 -1,0.5 -1.4,0.8z" fill="#d1303e"/><path d="M235.4,163.30001c0.1,-0.1 0.1,-0.1 0.2,-0.2c0.2,-0.1 0.5,-0.3 0.8,-0.5c0.8,0 1.6,0.1 2.3,0.1c-0.5,0.2 -1,0.5 -1.3,0.7c-0.6,-0.1 -1.3,-0.1 -2,-0.1z" fill="#d1303e"/><path d="M232.9,162.30001c-0.4,0.3 -0.7,0.5 -0.7,0.6c0,0.1 0,0.1 0,0.2c-0.5,0 -1,-0.1 -1.5,-0.1c0.1,-0.3 0.2,-0.6 0.4,-0.8c0.6,0.1 1.2,0.1 1.8,0.1z" fill="#d1303e"/><path d="M228.2,162.20001c-0.2,0.1 -0.4,0.3 -0.4,0.4c-0.1,0.1 -0.1,0.2 -0.1,0.3c-0.6,0 -1.1,-0.1 -1.6,-0.1c0.1,-0.3 0.2,-0.6 0.3,-0.8c0.6,0 1.2,0 1.8,0.2z" fill="#d1303e"/><path d="M252,167.5c-0.3,0.1 -0.7,0.2 -1.1,0.3c0,-1.1 -0.2,-5.1 -1,-5.3c-3.5,-1 -21.5,-1.6 -23.7,-1.7c0.6,-0.4 1.4,-0.8 2.4,-1.2c6.1,0.5 20.8,1.8 22.2,2.1c1.4,0.3 1.3,4.3 1.2,5.8z" fill="#e6818b"/><path d="M247.9,162.10001c0.4,-0.2 0.9,-0.4 1.3,-0.6c0.8,0.1 1.3,0.2 1.5,0.2c0.2,0 0.3,0.1 0.4,0.2c-0.4,0.2 -0.9,0.4 -1.3,0.6c-0.4,-0.2 -1,-0.3 -1.9,-0.4z" fill="#d1303e"/><path d="M243.6,161.70001c0.5,-0.2 0.9,-0.4 1.4,-0.6c0.8,0.1 1.5,0.1 2.2,0.2c-0.4,0.2 -0.9,0.4 -1.3,0.6c-0.7,-0.1 -1.5,-0.1 -2.3,-0.2z" fill="#d1303e"/><path d="M238.7,161.30001c0.5,-0.2 1.1,-0.5 1.6,-0.7c0.7,0.1 1.5,0.1 2.2,0.2c-0.5,0.3 -1,0.5 -1.5,0.7c-0.8,0 -1.6,-0.1 -2.3,-0.2z" fill="#d1303e"/><path d="M237,160.30001c-0.6,0.2 -1.2,0.5 -1.8,0.8c-0.8,0 -1.6,-0.1 -2.4,-0.1c0.5,-0.3 1.2,-0.6 1.9,-0.9c0.7,0.1 1.5,0.2 2.3,0.2z" fill="#d1303e"/><path d="M227.9,160.90001c0.6,-0.4 1.4,-0.8 2.2,-1.2c0.7,0.1 1.5,0.1 2.3,0.2c-0.8,0.3 -1.5,0.7 -2.2,1c-0.9,0 -1.7,0 -2.3,0z" fill="#d1303e"/><path d="M250.6,164.30001c0.4,-0.1 0.9,-0.3 1.3,-0.4c0.1,0.4 0.1,0.9 0.1,1.3c-0.4,0.1 -0.8,0.3 -1.3,0.4c0,-0.5 -0.1,-0.9 -0.1,-1.3z" fill="#d1303e"/><path d="M253.3,167c0.2,-4.9 -0.9,-6.1 -1.8,-6.6c-0.8,-0.4 -15.3,-1.2 -20.3,-1.5c1.3,-0.3 2.9,-0.6 4.6,-0.7c4.8,0.4 12.2,1 15.6,1.5c1.1,0.5 1.9,1.2 2.4,2c0.2,1.6 0.1,3.9 0.1,5c0,0.1 -0.3,0.2 -0.6,0.3z" fill="#e6818b"/><path d="M253.1,160.90001c-0.3,0.2 -0.5,0.3 -0.8,0.4c-0.2,-0.4 -0.5,-0.6 -0.8,-0.8c0.2,-0.1 0.5,-0.2 0.7,-0.3c0.2,0.1 0.4,0.2 0.5,0.3c0.1,0.1 0.1,0.1 0.2,0.2c0.1,0.1 0.2,0.2 0.2,0.2z" fill="#d1303e"/><path d="M249.1,159.40001c0.7,0 1.4,0.1 2,0.2c-0.3,0.1 -0.8,0.3 -1.2,0.5c-0.6,-0.1 -1.3,-0.1 -2.2,-0.2c0.5,-0.2 1,-0.4 1.4,-0.5z" fill="#d1303e"/><path d="M244.2,158.90001c0.7,0.1 1.4,0.1 2.1,0.3c-0.4,0.2 -0.9,0.4 -1.4,0.6c-0.7,-0.1 -1.5,-0.1 -2.3,-0.2c0.5,-0.3 1.1,-0.5 1.6,-0.7z" fill="#d1303e"/><path d="M235.9,158.20001c0.2,0 0.3,0 0.4,0c-0.6,0.2 -1.2,0.5 -1.9,0.8c-0.9,0 -1.7,-0.1 -2.4,-0.1c0.2,-0.1 0.5,-0.2 0.8,-0.3c-0.1,0 -0.1,0 0,0c0.9,-0.2 2,-0.3 3.1,-0.4z" fill="#d1303e"/><path d="M240.9,158.60001c-0.5,0.2 -1.1,0.4 -1.7,0.7c-0.8,0 -1.6,-0.1 -2.4,-0.1c0.7,-0.3 1.3,-0.6 1.9,-0.8c0.7,0.1 1.4,0.2 2.2,0.2z" fill="#d1303e"/><path d="M253.2,163.5c0.3,-0.1 0.6,-0.2 0.8,-0.3c0,0.4 0,0.8 0,1.2c-0.3,0.1 -0.5,0.2 -0.8,0.3c0,-0.5 -0.1,-0.9 0,-1.2z" fill="#d1303e"/><path d="M247.2,170.00001c-2,-0.5 -3.6,0.5 -5.6,1c-1.9,0.5 -1.5,-0.4 -4.1,-0.5c-2.6,0 -3.3,1.3 -5.9,1.2c-2.6,-0.1 -3.4,-2.5 -5.4,-2.2c-1.5,0.2 -2.6,-1.1 -3.2,-2.2c0.4,-0.2 0.8,-0.4 1.2,-0.6c0.8,1.1 1.7,1.5 2.8,1.4c1.5,0 4,1.8 4.9,2.5c0.9,0.7 4,-1.4 6.4,-0.9c2.4,0.5 3.5,0.4 5.2,-0.4c1.6,-0.8 5.9,-0.5 8.1,-0.4c1.5,0.1 2.9,-1.2 3.5,-2c0.5,0.3 0.9,0.6 1.3,0.8c-2.5,2.5 -7.3,2.8 -9.2,2.3z" fill="#e6818b"/><path d="M239,170.80001c-0.3,-0.1 -0.8,-0.2 -1.5,-0.2l0.3,-1c0.2,0 0.3,0.1 0.5,0.1c0.4,0.1 0.7,0.2 1,0.2z" fill="#d1303e"/><path d="M233.7,170.40001c0.5,-0.1 1.1,-0.3 1.7,-0.5l-0.4,1.1c-0.5,0.2 -1.1,0.4 -1.7,0.6z" fill="#d1303e"/><path d="M229.1,170.90001l1,-1.5c0.4,0.3 0.8,0.5 1.2,0.8l-0.8,1.4c-0.5,-0.2 -1,-0.5 -1.4,-0.7z" fill="#d1303e"/><path d="M228.3,168.50001l-1.2,1.2c-0.3,-0.1 -0.6,-0.1 -0.9,-0.1c-0.2,0.1 -0.5,0 -0.7,0l1.6,-1.4c0.3,-0.1 0.8,0.1 1.2,0.3z" fill="#d1303e"/><path d="M223,167.40001c0,-0.1 0.1,-0.1 0.1,-0.1c0.2,-0.1 0.3,-0.2 0.4,-0.2c0.1,-0.1 0.1,-0.1 0.2,-0.1c0.1,-0.1 0.3,-0.2 0.4,-0.3c0.1,0 0.1,0 0.1,0c0.2,0.4 0.5,0.6 0.8,0.8l-1.2,1c-0.3,-0.3 -0.6,-0.8 -0.8,-1.1z" fill="#d1303e"/><path d="M255.6,168.50001c-0.4,0.2 -0.7,0.4 -1.1,0.6l-0.9,-0.7c0.3,-0.2 0.6,-0.4 0.8,-0.6z" fill="#d1303e"/><path d="M249.5,168.80001c0.4,0 0.9,0.1 1.3,0.1l0.6,1.1c-0.4,0.1 -0.9,0.2 -1.3,0.2z" fill="#d1303e"/><path d="M247.6,168.80001l0.2,1.4c-0.2,0 -0.4,-0.1 -0.6,-0.1c-0.2,-0.1 -0.3,-0.1 -0.5,-0.1l-0.1,-1.2c0.4,0 0.7,0 1,0z" fill="#d1303e"/><path d="M242,169.90001c0.4,-0.1 0.8,-0.3 1.3,-0.5l0.1,1.2c-0.5,0.2 -1,0.4 -1.5,0.5z" fill="#d1303e"/><path d="M225.5,165.70001c0,0 5.2,3.5 14.3,3.2c9.1,-0.3 14.4,-3.1 14.4,-3.1c0,0 0.2,0.1 0.2,0.7c0,0 -8.9,3.7 -16.1,3.1c-10.5,-0.9 -13.1,-3.4 -13.1,-3.4z" fill="#c6aa8b"/></g></g></g></svg>